<!DOCTYPE svg PUBLIC "-//W3C//DTD SVG 20010904//EN" "http://www.w3.org/TR/2001/REC-SVG-20010904/DTD/svg10.dtd">
<svg version="1.0" xmlns="http://www.w3.org/2000/svg" width="1600px" height="533px" viewBox="0 0 16000 5330" preserveAspectRatio="xMidYMid meet">
<g id="layer101" fill="#000000" stroke="none">
 <path d="M9345 5318 c4 -13 43 -287 139 -968 99 -704 157 -1111 211 -1495 30 -209 76 -540 104 -735 109 -780 165 -1170 211 -1495 27 -187 56 -396 65 -465 9 -69 20 -129 26 -135 13 -13 368 -19 469 -8 l75 8 140 420 c156 463 430 1280 820 2440 140 418 321 957 402 1198 83 248 150 433 154 425 3 -7 88 -256 187 -553 100 -297 334 -997 522 -1555 187 -558 431 -1285 542 -1615 110 -330 214 -637 230 -683 l30 -82 272 2 271 3 41 285 c23 157 67 467 98 690 32 223 81 574 111 780 29 206 77 542 105 745 28 204 67 478 86 610 19 132 43 303 54 380 28 201 112 792 170 1205 59 412 80 568 80 593 0 16 -19 17 -264 17 -300 0 -269 10 -281 -95 -3 -33 -28 -215 -55 -405 -66 -459 -232 -1636 -320 -2260 -54 -388 -146 -1034 -182 -1287 -12 -84 -23 -151 -25 -150 -1 2 -61 179 -133 393 -225 670 -368 1097 -720 2144 -188 558 -389 1160 -448 1337 l-107 323 -268 -3 -269 -2 -39 -115 c-21 -63 -127 -376 -234 -695 -107 -319 -329 -980 -493 -1470 -165 -489 -375 -1115 -467 -1390 -92 -275 -171 -503 -174 -508 -4 -4 -29 145 -55 330 -26 186 -70 493 -97 683 -27 190 -74 523 -104 740 -31 217 -78 553 -105 745 -27 193 -75 528 -105 745 -31 217 -72 503 -91 635 -19 132 -34 255 -34 273 l0 32 -275 0 c-215 0 -273 -3 -270 -12z"/>
 <path d="M15470 2675 l0 -2655 249 0 c137 0 256 -3 265 -6 15 -6 16 232 16 2655 l0 2661 -265 0 -265 0 0 -2655z"/>
 <path d="M6398 5309 c-336 -26 -680 -120 -967 -263 -264 -133 -473 -283 -706 -508 l-103 -99 -46 54 c-40 46 -97 98 -241 223 -59 50 -221 163 -320 221 -728 430 -1597 488 -2390 161 -76 -31 -213 -102 -312 -159 -79 -47 -240 -154 -253 -169 -3 -3 -30 -25 -60 -49 -159 -124 -379 -359 -506 -538 -231 -326 -389 -724 -456 -1148 -30 -190 -32 -547 -4 -739 93 -651 420 -1247 912 -1662 419 -354 905 -560 1464 -619 630 -68 1305 119 1827 506 137 102 264 214 349 308 l47 52 101 -99 c162 -159 306 -273 489 -386 100 -61 295 -161 373 -189 299 -111 508 -160 794 -188 151 -14 430 -7 580 16 339 51 761 202 1001 357 33 21 62 38 64 38 19 0 257 184 355 275 353 325 616 745 754 1205 120 401 140 889 54 1295 -107 510 -347 952 -718 1325 -174 175 -232 223 -415 345 -494 328 -1076 479 -1667 434z m512 -525 c737 -107 1367 -595 1665 -1291 167 -388 209 -843 120 -1279 -31 -153 -114 -387 -187 -528 -181 -351 -458 -645 -808 -859 -376 -229 -824 -334 -1275 -298 -377 30 -763 172 -1069 393 -137 99 -362 309 -398 373 -5 8 18 63 56 136 125 241 218 516 267 796 21 114 23 160 23 428 0 268 -2 314 -23 428 -37 212 -111 462 -180 612 l-28 60 -37 -39 c-78 -82 -176 -324 -227 -561 -25 -117 -27 -182 -12 -365 36 -416 -75 -868 -305 -1249 -167 -277 -441 -549 -725 -720 -539 -325 -1192 -396 -1787 -195 -299 102 -584 272 -790 475 -399 391 -625 869 -662 1399 -52 741 264 1427 867 1879 473 354 1105 497 1674 380 441 -91 799 -284 1114 -602 l138 -139 -27 -45 c-153 -261 -264 -591 -321 -953 -22 -144 -25 -547 -4 -685 37 -250 98 -479 183 -683 22 -53 35 -72 47 -70 9 2 37 35 63 73 77 114 162 340 198 527 19 96 21 127 14 203 -5 50 -9 187 -8 305 0 177 4 236 22 331 43 232 133 494 223 651 23 40 50 89 61 108 35 60 100 152 172 240 367 449 932 744 1491 780 153 9 341 3 475 -16z"/>
 </g>

</svg>